<?xml version="1.0" encoding="us-ascii" standalone="no"?><svg xmlns="http://www.w3.org/2000/svg" xmlns:xlink="http://www.w3.org/1999/xlink" contentStyleType="text/css" height="911px" preserveAspectRatio="none" style="width:903px;height:911px;background:#FFFFFF;" version="1.1" viewBox="0 0 903 911" width="903px" zoomAndPan="magnify"><defs/><g><!--class ConfigGame--><g id="elem_ConfigGame"><rect codeLine="2" fill="#F1F1F1" height="401.8008" id="ConfigGame" rx="2.5" ry="2.5" style="stroke:#181818;stroke-width:0.5;" width="216" x="660" y="7"/><ellipse cx="724.25" cy="23" fill="#ADD1B2" rx="11" ry="11" style="stroke:#181818;stroke-width:1.0;"/><path d="M727.0156,18.875 Q727.1719,18.6563 727.3594,18.5469 Q727.5469,18.4375 727.7656,18.4375 Q728.1406,18.4375 728.375,18.7031 Q728.6094,18.9531 728.6094,19.5625 L728.6094,21.0156 Q728.6094,21.625 728.375,21.8906 Q728.1406,22.1563 727.7656,22.1563 Q727.4219,22.1563 727.2188,21.9531 Q727.0156,21.7656 726.9063,21.25 Q726.8594,20.8906 726.6719,20.7031 Q726.3438,20.3281 725.7344,20.1094 Q725.125,19.8906 724.5,19.8906 Q723.7344,19.8906 723.0938,20.2188 Q722.4688,20.5469 721.9688,21.2969 Q721.4844,22.0469 721.4844,23.0781 L721.4844,24.1719 Q721.4844,25.4063 722.375,26.2344 Q723.2656,27.0469 724.8594,27.0469 Q725.7969,27.0469 726.4531,26.7969 Q726.8438,26.6406 727.2656,26.2031 Q727.5313,25.9375 727.6719,25.8594 Q727.8281,25.7813 728.0313,25.7813 Q728.3594,25.7813 728.6094,26.0469 Q728.875,26.2969 728.875,26.6406 Q728.875,26.9844 728.5313,27.3906 Q728.0313,27.9688 727.2344,28.2969 Q726.1563,28.75 724.8594,28.75 Q723.3438,28.75 722.1406,28.125 Q721.1563,27.625 720.4688,26.5625 Q719.7813,25.4844 719.7813,24.2031 L719.7813,23.0469 Q719.7813,21.7188 720.3906,20.5781 Q721.0156,19.4219 722.1094,18.8125 Q723.2031,18.1875 724.4375,18.1875 Q725.1719,18.1875 725.8125,18.3594 Q726.4688,18.5156 727.0156,18.875 Z " fill="#000000"/><text fill="#000000" font-family="sans-serif" font-size="14" lengthAdjust="spacing" textLength="79" x="744.75" y="28.7969">ConfigGame</text><line style="stroke:#181818;stroke-width:0.5;" x1="661" x2="875" y1="39" y2="39"/><line style="stroke:#181818;stroke-width:0.5;" x1="661" x2="875" y1="47" y2="47"/><rect fill="#F24D5C" height="6" style="stroke:#C82930;stroke-width:1.0;" width="6" x="668" y="58.8105"/><text fill="#000000" font-family="sans-serif" font-size="14" lengthAdjust="spacing" text-decoration="underline" textLength="157" x="680" y="66.1074">defenceLightArmor() : int</text><rect fill="#F24D5C" height="6" style="stroke:#C82930;stroke-width:1.0;" width="6" x="668" y="77.4316"/><text fill="#000000" font-family="sans-serif" font-size="14" lengthAdjust="spacing" text-decoration="underline" textLength="165" x="680" y="84.7285">defenceHeavyArmor() : int</text><text fill="#000000" font-family="sans-serif" font-size="14" lengthAdjust="spacing" textLength="4" x="680" y="103.3496">&#160;</text><rect fill="#F24D5C" height="6" style="stroke:#C82930;stroke-width:1.0;" width="6" x="668" y="114.6738"/><text fill="#000000" font-family="sans-serif" font-size="14" lengthAdjust="spacing" text-decoration="underline" textLength="105" x="680" y="121.9707">healthZerg() : int</text><rect fill="#F24D5C" height="6" style="stroke:#C82930;stroke-width:1.0;" width="6" x="668" y="133.2949"/><text fill="#000000" font-family="sans-serif" font-size="14" lengthAdjust="spacing" text-decoration="underline" textLength="117" x="680" y="140.5918">damageZerg() : int</text><text fill="#000000" font-family="sans-serif" font-size="14" lengthAdjust="spacing" textLength="4" x="680" y="159.2129">&#160;</text><rect fill="#F24D5C" height="6" style="stroke:#C82930;stroke-width:1.0;" width="6" x="668" y="170.5371"/><text fill="#000000" font-family="sans-serif" font-size="14" lengthAdjust="spacing" text-decoration="underline" textLength="117" x="680" y="177.834">healthProtos() : int</text><rect fill="#F24D5C" height="6" style="stroke:#C82930;stroke-width:1.0;" width="6" x="668" y="189.1582"/><text fill="#000000" font-family="sans-serif" font-size="14" lengthAdjust="spacing" text-decoration="underline" textLength="129" x="680" y="196.4551">damageProtos() : int</text><text fill="#000000" font-family="sans-serif" font-size="14" lengthAdjust="spacing" textLength="4" x="680" y="215.0762">&#160;</text><ellipse cx="671" cy="229.4004" fill="#84BE84" rx="3" ry="3" style="stroke:#038048;stroke-width:1.0;"/><text fill="#000000" font-family="sans-serif" font-size="14" lengthAdjust="spacing" text-decoration="underline" textLength="66" x="680" y="233.6973">Init() : void</text><text fill="#000000" font-family="sans-serif" font-size="14" lengthAdjust="spacing" textLength="4" x="680" y="252.3184">&#160;</text><ellipse cx="671" cy="266.6426" fill="#84BE84" rx="3" ry="3" style="stroke:#038048;stroke-width:1.0;"/><text fill="#000000" font-family="sans-serif" font-size="14" lengthAdjust="spacing" text-decoration="underline" textLength="182" x="680" y="270.9395">GetDefenceLightArmor() : int</text><ellipse cx="671" cy="285.2637" fill="#84BE84" rx="3" ry="3" style="stroke:#038048;stroke-width:1.0;"/><text fill="#000000" font-family="sans-serif" font-size="14" lengthAdjust="spacing" text-decoration="underline" textLength="190" x="680" y="289.5605">GetDefenceHeavyArmor() : int</text><text fill="#000000" font-family="sans-serif" font-size="14" lengthAdjust="spacing" textLength="4" x="680" y="308.1816">&#160;</text><ellipse cx="671" cy="322.5059" fill="#84BE84" rx="3" ry="3" style="stroke:#038048;stroke-width:1.0;"/><text fill="#000000" font-family="sans-serif" font-size="14" lengthAdjust="spacing" text-decoration="underline" textLength="129" x="680" y="326.8027">GetHealthZerg() : int</text><ellipse cx="671" cy="341.127" fill="#84BE84" rx="3" ry="3" style="stroke:#038048;stroke-width:1.0;"/><text fill="#000000" font-family="sans-serif" font-size="14" lengthAdjust="spacing" text-decoration="underline" textLength="142" x="680" y="345.4238">GetDamageZerg() : int</text><text fill="#000000" font-family="sans-serif" font-size="14" lengthAdjust="spacing" textLength="4" x="680" y="364.0449">&#160;</text><ellipse cx="671" cy="378.3691" fill="#84BE84" rx="3" ry="3" style="stroke:#038048;stroke-width:1.0;"/><text fill="#000000" font-family="sans-serif" font-size="14" lengthAdjust="spacing" text-decoration="underline" textLength="141" x="680" y="382.666">GetHealthProtos() : int</text><ellipse cx="671" cy="396.9902" fill="#84BE84" rx="3" ry="3" style="stroke:#038048;stroke-width:1.0;"/><text fill="#000000" font-family="sans-serif" font-size="14" lengthAdjust="spacing" text-decoration="underline" textLength="154" x="680" y="401.2871">GetDamageProtos() : int</text></g><!--class Armor--><g id="elem_Armor"><rect codeLine="25" fill="#F1F1F1" height="159.7266" id="Armor" rx="2.5" ry="2.5" style="stroke:#181818;stroke-width:0.5;" width="242" x="329" y="128"/><ellipse cx="426.75" cy="144" fill="#A9DCDF" rx="11" ry="11" style="stroke:#181818;stroke-width:1.0;"/><path d="M428.9375,145.7656 L424.7969,145.7656 L424.375,146.7969 L424.7969,146.7969 Q425.4063,146.7969 425.6719,147.0313 Q425.9375,147.2656 425.9375,147.6563 Q425.9375,148.0313 425.6719,148.2656 Q425.4063,148.5 424.7969,148.5 L422.5,148.5 Q421.8906,148.5 421.6406,148.2656 Q421.375,148.0313 421.375,147.6406 Q421.375,147.2656 421.6563,147.0313 Q421.9219,146.7813 422.5469,146.7969 L425.2188,140.1406 L424.1094,140.1406 Q423.5,140.1406 423.2344,139.9063 Q422.9688,139.6719 422.9688,139.2813 Q422.9688,138.9063 423.2344,138.6719 Q423.5,138.4375 424.1094,138.4375 L427.7813,138.4375 L431.1719,146.7969 Q431.7656,146.7969 431.9531,146.9375 Q432.3438,147.2031 432.3438,147.6563 Q432.3438,148.0313 432.0781,148.2656 Q431.8281,148.5 431.2188,148.5 L428.9219,148.5 Q428.3125,148.5 428.0469,148.2656 Q427.7813,148.0313 427.7813,147.6406 Q427.7813,147.2656 428.0469,147.0313 Q428.3125,146.7969 428.9219,146.7969 L429.3438,146.7969 L428.9375,145.7656 Z M428.2188,144.0625 L426.8594,140.6875 L425.4844,144.0625 L428.2188,144.0625 Z " fill="#000000"/><text fill="#000000" font-family="sans-serif" font-size="14" font-style="italic" lengthAdjust="spacing" textLength="38" x="447.25" y="149.7969">Armor</text><line style="stroke:#181818;stroke-width:0.5;" x1="330" x2="570" y1="160" y2="160"/><rect fill="none" height="6" style="stroke:#C82930;stroke-width:1.0;" width="6" x="337" y="171.8105"/><text fill="#000000" font-family="sans-serif" font-size="14" lengthAdjust="spacing" textLength="82" x="349" y="179.1074">name : string</text><rect fill="none" height="6" style="stroke:#C82930;stroke-width:1.0;" width="6" x="337" y="190.4316"/><text fill="#000000" font-family="sans-serif" font-size="14" lengthAdjust="spacing" textLength="78" x="349" y="197.7285">defence : int</text><line style="stroke:#181818;stroke-width:0.5;" x1="330" x2="570" y1="205.2422" y2="205.2422"/><polygon fill="#FFFF44" points="340,215.0527,344,219.0527,340,223.0527,336,219.0527" style="stroke:#B38D22;stroke-width:1.0;"/><text fill="#000000" font-family="sans-serif" font-size="14" lengthAdjust="spacing" textLength="216" x="349" y="224.3496">Armor(name : string, defence : int)</text><text fill="#000000" font-family="sans-serif" font-size="14" lengthAdjust="spacing" textLength="4" x="349" y="242.9707">&#160;</text><ellipse cx="340" cy="257.2949" fill="#84BE84" rx="3" ry="3" style="stroke:#038048;stroke-width:1.0;"/><text fill="#000000" font-family="sans-serif" font-size="14" lengthAdjust="spacing" textLength="116" x="349" y="261.5918">GetName() : string</text><ellipse cx="340" cy="275.916" fill="#84BE84" rx="3" ry="3" style="stroke:#038048;stroke-width:1.0;"/><text fill="#000000" font-family="sans-serif" font-size="14" lengthAdjust="spacing" textLength="113" x="349" y="280.2129">GetDefence() : int</text></g><!--class LightArmor--><g id="elem_LightArmor"><rect codeLine="36" fill="#F1F1F1" height="66.6211" id="LightArmor" rx="2.5" ry="2.5" style="stroke:#181818;stroke-width:0.5;" width="187" x="582.5" y="590"/><ellipse cx="637.25" cy="606" fill="#ADD1B2" rx="11" ry="11" style="stroke:#181818;stroke-width:1.0;"/><path d="M640.0156,601.875 Q640.1719,601.6563 640.3594,601.5469 Q640.5469,601.4375 640.7656,601.4375 Q641.1406,601.4375 641.375,601.7031 Q641.6094,601.9531 641.6094,602.5625 L641.6094,604.0156 Q641.6094,604.625 641.375,604.8906 Q641.1406,605.1563 640.7656,605.1563 Q640.4219,605.1563 640.2188,604.9531 Q640.0156,604.7656 639.9063,604.25 Q639.8594,603.8906 639.6719,603.7031 Q639.3438,603.3281 638.7344,603.1094 Q638.125,602.8906 637.5,602.8906 Q636.7344,602.8906 636.0938,603.2188 Q635.4688,603.5469 634.9688,604.2969 Q634.4844,605.0469 634.4844,606.0781 L634.4844,607.1719 Q634.4844,608.4063 635.375,609.2344 Q636.2656,610.0469 637.8594,610.0469 Q638.7969,610.0469 639.4531,609.7969 Q639.8438,609.6406 640.2656,609.2031 Q640.5313,608.9375 640.6719,608.8594 Q640.8281,608.7813 641.0313,608.7813 Q641.3594,608.7813 641.6094,609.0469 Q641.875,609.2969 641.875,609.6406 Q641.875,609.9844 641.5313,610.3906 Q641.0313,610.9688 640.2344,611.2969 Q639.1563,611.75 637.8594,611.75 Q636.3438,611.75 635.1406,611.125 Q634.1563,610.625 633.4688,609.5625 Q632.7813,608.4844 632.7813,607.2031 L632.7813,606.0469 Q632.7813,604.7188 633.3906,603.5781 Q634.0156,602.4219 635.1094,601.8125 Q636.2031,601.1875 637.4375,601.1875 Q638.1719,601.1875 638.8125,601.3594 Q639.4688,601.5156 640.0156,601.875 Z " fill="#000000"/><text fill="#000000" font-family="sans-serif" font-size="14" lengthAdjust="spacing" textLength="69" x="657.75" y="611.7969">LightArmor</text><line style="stroke:#181818;stroke-width:0.5;" x1="583.5" x2="768.5" y1="622" y2="622"/><line style="stroke:#181818;stroke-width:0.5;" x1="583.5" x2="768.5" y1="630" y2="630"/><ellipse cx="593.5" cy="644.8105" fill="#84BE84" rx="3" ry="3" style="stroke:#038048;stroke-width:1.0;"/><text fill="#000000" font-family="sans-serif" font-size="14" lengthAdjust="spacing" textLength="161" x="602.5" y="649.1074">LightArmor(name : string)</text></g><!--class HeavyArmor--><g id="elem_HeavyArmor"><rect codeLine="41" fill="#F1F1F1" height="66.6211" id="HeavyArmor" rx="2.5" ry="2.5" style="stroke:#181818;stroke-width:0.5;" width="195" x="352.5" y="590"/><ellipse cx="407.25" cy="606" fill="#ADD1B2" rx="11" ry="11" style="stroke:#181818;stroke-width:1.0;"/><path d="M410.0156,601.875 Q410.1719,601.6563 410.3594,601.5469 Q410.5469,601.4375 410.7656,601.4375 Q411.1406,601.4375 411.375,601.7031 Q411.6094,601.9531 411.6094,602.5625 L411.6094,604.0156 Q411.6094,604.625 411.375,604.8906 Q411.1406,605.1563 410.7656,605.1563 Q410.4219,605.1563 410.2188,604.9531 Q410.0156,604.7656 409.9063,604.25 Q409.8594,603.8906 409.6719,603.7031 Q409.3438,603.3281 408.7344,603.1094 Q408.125,602.8906 407.5,602.8906 Q406.7344,602.8906 406.0938,603.2188 Q405.4688,603.5469 404.9688,604.2969 Q404.4844,605.0469 404.4844,606.0781 L404.4844,607.1719 Q404.4844,608.4063 405.375,609.2344 Q406.2656,610.0469 407.8594,610.0469 Q408.7969,610.0469 409.4531,609.7969 Q409.8438,609.6406 410.2656,609.2031 Q410.5313,608.9375 410.6719,608.8594 Q410.8281,608.7813 411.0313,608.7813 Q411.3594,608.7813 411.6094,609.0469 Q411.875,609.2969 411.875,609.6406 Q411.875,609.9844 411.5313,610.3906 Q411.0313,610.9688 410.2344,611.2969 Q409.1563,611.75 407.8594,611.75 Q406.3438,611.75 405.1406,611.125 Q404.1563,610.625 403.4688,609.5625 Q402.7813,608.4844 402.7813,607.2031 L402.7813,606.0469 Q402.7813,604.7188 403.3906,603.5781 Q404.0156,602.4219 405.1094,601.8125 Q406.2031,601.1875 407.4375,601.1875 Q408.1719,601.1875 408.8125,601.3594 Q409.4688,601.5156 410.0156,601.875 Z " fill="#000000"/><text fill="#000000" font-family="sans-serif" font-size="14" lengthAdjust="spacing" textLength="77" x="427.75" y="611.7969">HeavyArmor</text><line style="stroke:#181818;stroke-width:0.5;" x1="353.5" x2="546.5" y1="622" y2="622"/><line style="stroke:#181818;stroke-width:0.5;" x1="353.5" x2="546.5" y1="630" y2="630"/><ellipse cx="363.5" cy="644.8105" fill="#84BE84" rx="3" ry="3" style="stroke:#038048;stroke-width:1.0;"/><text fill="#000000" font-family="sans-serif" font-size="14" lengthAdjust="spacing" textLength="169" x="372.5" y="649.1074">HeavyArmor(name : string)</text></g><!--class Hero--><g id="elem_Hero"><rect codeLine="46" fill="#F1F1F1" height="308.6953" id="Hero" rx="2.5" ry="2.5" style="stroke:#181818;stroke-width:0.5;" width="308" x="9" y="469"/><ellipse cx="143.25" cy="485" fill="#A9DCDF" rx="11" ry="11" style="stroke:#181818;stroke-width:1.0;"/><path d="M145.4375,486.7656 L141.2969,486.7656 L140.875,487.7969 L141.2969,487.7969 Q141.9063,487.7969 142.1719,488.0313 Q142.4375,488.2656 142.4375,488.6563 Q142.4375,489.0313 142.1719,489.2656 Q141.9063,489.5 141.2969,489.5 L139,489.5 Q138.3906,489.5 138.1406,489.2656 Q137.875,489.0313 137.875,488.6406 Q137.875,488.2656 138.1563,488.0313 Q138.4219,487.7813 139.0469,487.7969 L141.7188,481.1406 L140.6094,481.1406 Q140,481.1406 139.7344,480.9063 Q139.4688,480.6719 139.4688,480.2813 Q139.4688,479.9063 139.7344,479.6719 Q140,479.4375 140.6094,479.4375 L144.2813,479.4375 L147.6719,487.7969 Q148.2656,487.7969 148.4531,487.9375 Q148.8438,488.2031 148.8438,488.6563 Q148.8438,489.0313 148.5781,489.2656 Q148.3281,489.5 147.7188,489.5 L145.4219,489.5 Q144.8125,489.5 144.5469,489.2656 Q144.2813,489.0313 144.2813,488.6406 Q144.2813,488.2656 144.5469,488.0313 Q144.8125,487.7969 145.4219,487.7969 L145.8438,487.7969 L145.4375,486.7656 Z M144.7188,485.0625 L143.3594,481.6875 L141.9844,485.0625 L144.7188,485.0625 Z " fill="#000000"/><text fill="#000000" font-family="sans-serif" font-size="14" font-style="italic" lengthAdjust="spacing" textLength="31" x="163.75" y="490.7969">Hero</text><line style="stroke:#181818;stroke-width:0.5;" x1="10" x2="316" y1="501" y2="501"/><rect fill="none" height="6" style="stroke:#C82930;stroke-width:1.0;" width="6" x="17" y="512.8105"/><text fill="#000000" font-family="sans-serif" font-size="14" lengthAdjust="spacing" textLength="82" x="29" y="520.1074">name : string</text><rect fill="none" height="6" style="stroke:#C82930;stroke-width:1.0;" width="6" x="17" y="531.4316"/><text fill="#000000" font-family="sans-serif" font-size="14" lengthAdjust="spacing" textLength="66" x="29" y="538.7285">health : int</text><rect fill="none" height="6" style="stroke:#C82930;stroke-width:1.0;" width="6" x="17" y="550.0527"/><text fill="#000000" font-family="sans-serif" font-size="14" lengthAdjust="spacing" textLength="78" x="29" y="557.3496">damage : int</text><rect fill="none" height="6" style="stroke:#C82930;stroke-width:1.0;" width="6" x="17" y="568.6738"/><text fill="#000000" font-family="sans-serif" font-size="14" lengthAdjust="spacing" textLength="87" x="29" y="575.9707">armor : Armor</text><line style="stroke:#181818;stroke-width:0.5;" x1="10" x2="316" y1="583.4844" y2="583.4844"/><polygon fill="#FFFF44" points="20,593.2949,24,597.2949,20,601.2949,16,597.2949" style="stroke:#B38D22;stroke-width:1.0;"/><text fill="#000000" font-family="sans-serif" font-size="14" lengthAdjust="spacing" textLength="282" x="29" y="602.5918">Hero(name : string, health : int, damage : int)</text><text fill="#000000" font-family="sans-serif" font-size="14" lengthAdjust="spacing" textLength="4" x="29" y="621.2129">&#160;</text><ellipse cx="20" cy="635.5371" fill="#84BE84" rx="3" ry="3" style="stroke:#038048;stroke-width:1.0;"/><text fill="#000000" font-family="sans-serif" font-size="14" lengthAdjust="spacing" textLength="116" x="29" y="639.834">GetName() : string</text><ellipse cx="20" cy="654.1582" fill="#84BE84" rx="3" ry="3" style="stroke:#038048;stroke-width:1.0;"/><text fill="#000000" font-family="sans-serif" font-size="14" lengthAdjust="spacing" textLength="100" x="29" y="658.4551">GetHealth() : int</text><ellipse cx="20" cy="672.7793" fill="#84BE84" rx="3" ry="3" style="stroke:#038048;stroke-width:1.0;"/><text fill="#000000" font-family="sans-serif" font-size="14" lengthAdjust="spacing" textLength="113" x="29" y="677.0762">GetDamage() : int</text><ellipse cx="20" cy="691.4004" fill="#84BE84" rx="3" ry="3" style="stroke:#038048;stroke-width:1.0;"/><text fill="#000000" font-family="sans-serif" font-size="14" lengthAdjust="spacing" textLength="93" x="29" y="695.6973">IsDead() : bool</text><text fill="#000000" font-family="sans-serif" font-size="14" lengthAdjust="spacing" textLength="4" x="29" y="714.3184">&#160;</text><ellipse cx="20" cy="728.6426" fill="#84BE84" rx="3" ry="3" style="stroke:#038048;stroke-width:1.0;"/><text fill="#000000" font-family="sans-serif" font-size="14" lengthAdjust="spacing" textLength="194" x="29" y="732.9395">SetArmor(armor : Armor) : void</text><text fill="#000000" font-family="sans-serif" font-size="14" lengthAdjust="spacing" textLength="4" x="29" y="751.5605">&#160;</text><ellipse cx="20" cy="765.8848" fill="#84BE84" rx="3" ry="3" style="stroke:#038048;stroke-width:1.0;"/><text fill="#000000" font-family="sans-serif" font-size="14" lengthAdjust="spacing" textLength="158" x="29" y="770.1816">Attack(hero : Hero) : void</text></g><!--class Zerg--><g id="elem_Zerg"><rect codeLine="66" fill="#F1F1F1" height="66.6211" id="Zerg" rx="2.5" ry="2.5" style="stroke:#181818;stroke-width:0.5;" width="147" x="684.5" y="838"/><ellipse cx="739.25" cy="854" fill="#ADD1B2" rx="11" ry="11" style="stroke:#181818;stroke-width:1.0;"/><path d="M742.0156,849.875 Q742.1719,849.6563 742.3594,849.5469 Q742.5469,849.4375 742.7656,849.4375 Q743.1406,849.4375 743.375,849.7031 Q743.6094,849.9531 743.6094,850.5625 L743.6094,852.0156 Q743.6094,852.625 743.375,852.8906 Q743.1406,853.1563 742.7656,853.1563 Q742.4219,853.1563 742.2188,852.9531 Q742.0156,852.7656 741.9063,852.25 Q741.8594,851.8906 741.6719,851.7031 Q741.3438,851.3281 740.7344,851.1094 Q740.125,850.8906 739.5,850.8906 Q738.7344,850.8906 738.0938,851.2188 Q737.4688,851.5469 736.9688,852.2969 Q736.4844,853.0469 736.4844,854.0781 L736.4844,855.1719 Q736.4844,856.4063 737.375,857.2344 Q738.2656,858.0469 739.8594,858.0469 Q740.7969,858.0469 741.4531,857.7969 Q741.8438,857.6406 742.2656,857.2031 Q742.5313,856.9375 742.6719,856.8594 Q742.8281,856.7813 743.0313,856.7813 Q743.3594,856.7813 743.6094,857.0469 Q743.875,857.2969 743.875,857.6406 Q743.875,857.9844 743.5313,858.3906 Q743.0313,858.9688 742.2344,859.2969 Q741.1563,859.75 739.8594,859.75 Q738.3438,859.75 737.1406,859.125 Q736.1563,858.625 735.4688,857.5625 Q734.7813,856.4844 734.7813,855.2031 L734.7813,854.0469 Q734.7813,852.7188 735.3906,851.5781 Q736.0156,850.4219 737.1094,849.8125 Q738.2031,849.1875 739.4375,849.1875 Q740.1719,849.1875 740.8125,849.3594 Q741.4688,849.5156 742.0156,849.875 Z " fill="#000000"/><text fill="#000000" font-family="sans-serif" font-size="14" lengthAdjust="spacing" textLength="29" x="759.75" y="859.7969">Zerg</text><line style="stroke:#181818;stroke-width:0.5;" x1="685.5" x2="830.5" y1="870" y2="870"/><line style="stroke:#181818;stroke-width:0.5;" x1="685.5" x2="830.5" y1="878" y2="878"/><ellipse cx="695.5" cy="892.8105" fill="#84BE84" rx="3" ry="3" style="stroke:#038048;stroke-width:1.0;"/><text fill="#000000" font-family="sans-serif" font-size="14" lengthAdjust="spacing" textLength="121" x="704.5" y="897.1074">Zerg(name : string)</text></g><!--class ProtosT--><g id="elem_Protos"><rect codeLine="72" fill="#F1F1F1" height="66.6211" id="ProtosT" rx="2.5" ry="2.5" style="stroke:#181818;stroke-width:0.5;" width="159" x="354.5" y="838"/><ellipse cx="409.25" cy="854" fill="#ADD1B2" rx="11" ry="11" style="stroke:#181818;stroke-width:1.0;"/><path d="M412.0156,849.875 Q412.1719,849.6563 412.3594,849.5469 Q412.5469,849.4375 412.7656,849.4375 Q413.1406,849.4375 413.375,849.7031 Q413.6094,849.9531 413.6094,850.5625 L413.6094,852.0156 Q413.6094,852.625 413.375,852.8906 Q413.1406,853.1563 412.7656,853.1563 Q412.4219,853.1563 412.2188,852.9531 Q412.0156,852.7656 411.9063,852.25 Q411.8594,851.8906 411.6719,851.7031 Q411.3438,851.3281 410.7344,851.1094 Q410.125,850.8906 409.5,850.8906 Q408.7344,850.8906 408.0938,851.2188 Q407.4688,851.5469 406.9688,852.2969 Q406.4844,853.0469 406.4844,854.0781 L406.4844,855.1719 Q406.4844,856.4063 407.375,857.2344 Q408.2656,858.0469 409.8594,858.0469 Q410.7969,858.0469 411.4531,857.7969 Q411.8438,857.6406 412.2656,857.2031 Q412.5313,856.9375 412.6719,856.8594 Q412.8281,856.7813 413.0313,856.7813 Q413.3594,856.7813 413.6094,857.0469 Q413.875,857.2969 413.875,857.6406 Q413.875,857.9844 413.5313,858.3906 Q413.0313,858.9688 412.2344,859.2969 Q411.1563,859.75 409.8594,859.75 Q408.3438,859.75 407.1406,859.125 Q406.1563,858.625 405.4688,857.5625 Q404.7813,856.4844 404.7813,855.2031 L404.7813,854.0469 Q404.7813,852.7188 405.3906,851.5781 Q406.0156,850.4219 407.1094,849.8125 Q408.2031,849.1875 409.4375,849.1875 Q410.1719,849.1875 410.8125,849.3594 Q411.4688,849.5156 412.0156,849.875 Z " fill="#000000"/><text fill="#000000" font-family="sans-serif" font-size="14" lengthAdjust="spacing" textLength="41" x="429.75" y="859.7969">ProtosT</text><line style="stroke:#181818;stroke-width:0.5;" x1="355.5" x2="512.5" y1="870" y2="870"/><line style="stroke:#181818;stroke-width:0.5;" x1="355.5" x2="512.5" y1="878" y2="878"/><ellipse cx="365.5" cy="892.8105" fill="#84BE84" rx="3" ry="3" style="stroke:#038048;stroke-width:1.0;"/><text fill="#000000" font-family="sans-serif" font-size="14" lengthAdjust="spacing" textLength="133" x="374.5" y="897.1074">ProtosT(name : string)</text></g><!--reverse link ConfigGame to LightArmor--><g id="link_ConfigGame_LightArmor"><path codeLine="34" d="M722.39,414 C707.2,482.28 691.95,550.81 683.27,589.81 " fill="none" id="ConfigGame-backto-LightArmor" style="stroke:#181818;stroke-width:1.0;"/><polygon fill="#181818" points="723.48,409.09,717.618,417.0043,722.3923,413.9703,725.4264,418.7446,723.48,409.09" style="stroke:#181818;stroke-width:1.0;"/></g><!--reverse link Armor to LightArmor--><g id="link_Armor_LightArmor"><path codeLine="35" d="M502.99,305.95 C552.94,397.34 624.93,529.06 658.07,589.69 " fill="none" id="Armor-backto-LightArmor" style="stroke:#181818;stroke-width:1.0;"/><polygon fill="none" points="496.76,309.14,493.31,288.24,509.04,302.43,496.76,309.14" style="stroke:#181818;stroke-width:1.0;"/></g><!--reverse link ConfigGame to HeavyArmor--><g id="link_ConfigGame_HeavyArmor"><path codeLine="39" d="M656.51,350.74 C626.63,389.01 594.46,430.49 565,469 C533.34,510.39 497.41,558.54 474.27,589.72 " fill="none" id="ConfigGame-backto-HeavyArmor" style="stroke:#181818;stroke-width:1.0;"/><polygon fill="#181818" points="659.76,346.57,651.0736,351.2119,656.6873,350.5145,657.3848,356.1281,659.76,346.57" style="stroke:#181818;stroke-width:1.0;"/></g><!--reverse link Armor to HeavyArmor--><g id="link_Armor_HeavyArmor"><path codeLine="40" d="M450,308.24 C450,399.53 450,529.57 450,589.69 " fill="none" id="Armor-backto-HeavyArmor" style="stroke:#181818;stroke-width:1.0;"/><polygon fill="none" points="443,308.24,450,288.24,457,308.24,443,308.24" style="stroke:#181818;stroke-width:1.0;"/></g><!--link Armor to Hero--><g id="link_Armor_Hero"><path codeLine="45" d="M387.57,298.95 C355.23,345.54 314.72,403.91 277.04,458.2 " fill="none" id="Armor-Hero" style="stroke:#181818;stroke-width:1.0;"/><polygon fill="#181818" points="395,288.24,386.583,293.3541,392.1497,292.348,393.1558,297.9147,395,288.24" style="stroke:#181818;stroke-width:1.0;"/><line style="stroke:#181818;stroke-width:1.0;" x1="392.1497" x2="387.59" y1="292.348" y2="298.915"/><polygon fill="#181818" points="269.54,469,276.2485,466.3549,276.387,459.1451,269.6785,461.7902,269.54,469" style="stroke:#181818;stroke-width:1.0;"/></g><!--reverse link ConfigGame to Zerg--><g id="link_ConfigGame_Zerg"><path codeLine="64" d="M847.4,414.1 C878.19,525.26 896.08,663.01 849,778 C839.44,801.35 820.83,821.97 802.91,837.79 " fill="none" id="ConfigGame-backto-Zerg" style="stroke:#181818;stroke-width:1.0;"/><polygon fill="#181818" points="846.02,409.16,844.612,418.9077,847.3766,413.9724,852.3119,416.7371,846.02,409.16" style="stroke:#181818;stroke-width:1.0;"/></g><!--reverse link Hero to Zerg--><g id="link_Hero_Zerg"><path codeLine="65" d="M334.72,777.86 C334.81,777.9 334.91,777.95 335,778 C395.26,808.76 579.9,841.99 684.23,859.02 " fill="none" id="Hero-backto-Zerg" style="stroke:#181818;stroke-width:1.0;"/><polygon fill="none" points="331.31,783.97,317.24,768.13,338.12,771.74,331.31,783.97" style="stroke:#181818;stroke-width:1.0;"/></g><!--reverse link ConfigGame to ProtosT--><g id="link_ConfigGame_Protos"><path codeLine="70" d="M801.53,414.54 C819.37,553.92 829.81,722.52 787,778 C753.86,820.95 607.09,847.83 513.55,860.92 " fill="none" id="ConfigGame-backto-ProtosT" style="stroke:#181818;stroke-width:1.0;"/><polygon fill="#181818" points="800.84,409.18,798.0307,418.6197,801.483,414.1385,805.9642,417.5908,800.84,409.18" style="stroke:#181818;stroke-width:1.0;"/></g><!--reverse link Hero to ProtosT--><g id="link_Hero_Protos"><path codeLine="71" d="M331.93,777.85 C356.84,800.46 380.15,821.61 398.18,837.98 " fill="none" id="Hero-backto-ProtosT" style="stroke:#181818;stroke-width:1.0;"/><polygon fill="none" points="327.21,783.01,317.11,764.39,336.62,772.65,327.21,783.01" style="stroke:#181818;stroke-width:1.0;"/></g><!--SRC=[VPFBQiCm44Nt-Wf1DtOJ_u399ZIG14efTDUT8YksY2s1B0B5zRzN3yTwfZjhvkfeviuOzsWSuHjdLzeUqK0cKC5fb4XIFCE6N0d3v9ssdToBWOkYX3MaJ6P49uBkFw78LtK4zRBx9gBDCj20MX9aqykVWai-FhyUvS762SwCIfEuSze4cIEHXwTTPdMvHaFXAUqr8cNQpI6YZdAGkEaP07GPfK1OGcncQqg5UgvCpLVfL9QoLfsNoJsklbXf4SYseQhKXQh7FvJ6FBh0Dfv1Qp4pS7i5TrK5dSN0LhNx3QEsOXUO5DYRIr1PcVBTQ7o-5xLy5z1yRvu9_u6fgbUb4ppsLiUorjgDNJVLBkXwH8PQMx-ryPeJ- -uZjW7Xto7OpV5sPbqLBtOU3mGr9d3XlDUyBxAO71Jd_pDxAH6-5PtkkJObhrdbL3WAlTl0k6D6O8xMClq9jUzc_LF7GuvTRu-q12pB7ZHj-GrIt1y0]--></g></svg>